<svg width="32" height="32" viewBox="0 0 32 32" fill="none" xmlns="http://www.w3.org/2000/svg">
<path d="M32 32H0V0H32V32ZM11.7471 10.7109C11.747 10.74 11.7405 13.7777 10.4971 15.3936C9.2516 17.0116 5.52476 17.0175 5.5 17.0176V17.6934C5.52477 17.6934 9.25163 17.6994 10.4971 19.3174C11.7463 20.9408 11.7471 23.9988 11.7471 24H12.2676C12.2676 23.9988 12.2676 20.9408 13.5166 19.3174C14.7628 17.6979 18.4954 17.6934 18.5146 17.6934V17.0176C18.4954 17.0175 14.7629 17.0129 13.5166 15.3936C12.2734 13.7776 12.2676 10.74 12.2676 10.7109H11.7471ZM10.8574 9.64746H13.3086V10.7129C13.3086 10.7163 13.3094 10.7222 13.3096 10.7305C13.3098 10.7482 13.3095 10.7776 13.3105 10.8154C13.3127 10.8912 13.3173 11.0044 13.3262 11.1465C13.3441 11.4325 13.38 11.8295 13.4512 12.2705C13.6002 13.1939 13.8791 14.1425 14.3359 14.7363C14.4982 14.9471 14.7903 15.1624 15.2314 15.3535C15.6637 15.5408 16.169 15.6754 16.6709 15.7686C17.1681 15.8608 17.6347 15.9071 17.9785 15.9307C18.1494 15.9423 18.2882 15.9484 18.3818 15.9512C18.4285 15.9526 18.4647 15.9538 18.4873 15.9541H19.5557V18.7568H18.4873C18.4647 18.7571 18.4285 18.7584 18.3818 18.7598C18.2882 18.7626 18.1494 18.7686 17.9785 18.7803C17.6347 18.8038 17.1682 18.8501 16.6709 18.9424C16.169 19.0356 15.6637 19.1702 15.2314 19.3574C14.7904 19.5485 14.4982 19.7638 14.3359 19.9746C14.1682 20.1926 14.0244 20.4582 13.9023 20.7529L14.793 24H22.1123L26.5 8H24.2676L21.4248 18.9023L18.6943 8H10.4043L10.8574 9.64746Z" fill="#C0C3CC"/>
</svg>
